<!-- <svg width="176" height="32" viewBox="0 0 176 32" fill="none" xmlns="http://www.w3.org/2000/svg">
<path d="M44 9.17592H50.2773V27.1572H54.032V9.17592H60.3093V5.71459H44V9.17592Z" fill="white"/>
<path d="M64.4999 27.5386C66.7585 27.5386 68.7239 26.5119 69.3399 25.0159L69.6039 27.1572H72.7425V18.3572C72.7425 14.3386 70.3372 12.2266 66.4359 12.2266C62.5052 12.2266 59.9239 14.2799 59.9239 17.4186H62.9745C62.9745 15.8933 64.1479 15.0133 66.2599 15.0133C68.0785 15.0133 69.2519 15.8053 69.2519 17.7706V18.0932L64.9105 18.4159C61.4785 18.6799 59.5425 20.3519 59.5425 23.0213C59.5425 25.7492 61.4199 27.5386 64.4999 27.5386ZM65.6732 24.8399C64.0599 24.8399 63.1799 24.1946 63.1799 22.8746C63.1799 21.7012 64.0305 20.9679 66.2599 20.7626L69.2812 20.5279V21.2906C69.2812 23.5199 67.8732 24.8399 65.6732 24.8399Z" fill="white"/>
<path d="M78.0475 9.76258C79.2209 9.76258 80.1889 8.79458 80.1889 7.59192C80.1889 6.38925 79.2209 5.45059 78.0475 5.45059C76.8155 5.45059 75.8475 6.38925 75.8475 7.59192C75.8475 8.79458 76.8155 9.76258 78.0475 9.76258ZM76.2582 27.1572H79.8369V12.6666H76.2582V27.1572Z" fill="white"/>
<path d="M87.1422 27.1572V5.33325H83.5929V27.1572H87.1422Z" fill="white"/>
<path d="M93.2722 27.1572L95.0029 22.1999H103.011L104.742 27.1572H108.702L100.958 5.71459H97.1149L89.3709 27.1572H93.2722ZM98.5522 12.1093C98.7576 11.5226 98.9335 10.8773 99.0215 10.4666C99.0802 10.9066 99.2855 11.5519 99.4615 12.1093L101.926 19.0319H96.1175L98.5522 12.1093Z" fill="white"/>
<path d="M116.158 27.5386C118.358 27.5386 120.236 26.5706 121.116 24.8986L121.35 27.1572H124.636V5.33325H121.086V14.5146C120.177 13.0773 118.388 12.2266 116.364 12.2266C111.993 12.2266 109.353 15.4533 109.353 19.9706C109.353 24.4586 111.964 27.5386 116.158 27.5386ZM116.95 24.2532C114.457 24.2532 112.932 22.4346 112.932 19.8533C112.932 17.2719 114.457 15.4239 116.95 15.4239C119.444 15.4239 121.057 17.2426 121.057 19.8533C121.057 22.4639 119.444 24.2532 116.95 24.2532Z" fill="white"/>
<path d="M131.944 27.1572V18.9439C131.944 16.5973 133.322 15.4826 135.024 15.4826C136.725 15.4826 137.81 16.5679 137.81 18.5919V27.1572H141.389V18.9439C141.389 16.5679 142.709 15.4533 144.44 15.4533C146.141 15.4533 147.256 16.5386 147.256 18.6213V27.1572H150.805V17.6826C150.805 14.3386 148.869 12.2266 145.349 12.2266C143.149 12.2266 141.448 13.3119 140.714 14.9839C139.952 13.3119 138.426 12.2266 136.226 12.2266C134.144 12.2266 132.677 13.1653 131.944 14.3679L131.65 12.6666H128.365V27.1572H131.944Z" fill="white"/>
<path d="M156.107 9.76258C157.281 9.76258 158.249 8.79458 158.249 7.59192C158.249 6.38925 157.281 5.45059 156.107 5.45059C154.875 5.45059 153.907 6.38925 153.907 7.59192C153.907 8.79458 154.875 9.76258 156.107 9.76258ZM154.318 27.1572H157.897V12.6666H154.318V27.1572Z" fill="white"/>
<path d="M165.173 27.1572V19.3546C165.173 17.0079 166.522 15.4826 168.722 15.4826C170.57 15.4826 171.773 16.6559 171.773 19.0906V27.1572H175.351V18.2399C175.351 14.4853 173.474 12.2266 169.837 12.2266C167.871 12.2266 166.111 13.0773 165.202 14.5439L164.909 12.6666H161.594V27.1572H165.173Z" fill="white"/>
<path d="M0 8.42105C0 3.77023 3.77023 0 8.42105 0H23.5789C28.2298 0 32 3.77023 32 8.42105V23.5789C32 28.2298 28.2298 32 23.5789 32H8.42105C3.77023 32 0 28.2298 0 23.5789V8.42105Z" fill="#3C50E0"/>
<g filter="url(#filter0_d_506_10589)">
<path d="M8.42139 8.42127C8.42139 7.49111 9.17543 6.73706 10.1056 6.73706V6.73706C11.0358 6.73706 11.7898 7.49111 11.7898 8.42127V23.5792C11.7898 24.5093 11.0358 25.2634 10.1056 25.2634V25.2634C9.17543 25.2634 8.42139 24.5093 8.42139 23.5792V8.42127Z" fill="white"/>
</g>
<g opacity="0.9" filter="url(#filter1_d_506_10589)">
<path d="M14.7368 15.1576C14.7368 14.2274 15.4909 13.4734 16.421 13.4734V13.4734C17.3512 13.4734 18.1052 14.2274 18.1052 15.1576V23.5786C18.1052 24.5088 17.3512 25.2629 16.421 25.2629V25.2629C15.4909 25.2629 14.7368 24.5088 14.7368 23.5786V15.1576Z" fill="white"/>
</g>
<g opacity="0.7" filter="url(#filter2_d_506_10589)">
<path d="M21.0522 10.9469C21.0522 10.0167 21.8063 9.2627 22.7365 9.2627V9.2627C23.6666 9.2627 24.4207 10.0167 24.4207 10.9469V23.5785C24.4207 24.5086 23.6666 25.2627 22.7365 25.2627V25.2627C21.8063 25.2627 21.0522 24.5086 21.0522 23.5785V10.9469Z" fill="white"/>
</g>
<defs>
<filter id="filter0_d_506_10589" x="7.42139" y="6.23706" width="5.36865" height="20.5264" filterUnits="userSpaceOnUse" color-interpolation-filters="sRGB">
<feFlood flood-opacity="0" result="BackgroundImageFix"/>
<feColorMatrix in="SourceAlpha" type="matrix" values="0 0 0 0 0 0 0 0 0 0 0 0 0 0 0 0 0 0 127 0" result="hardAlpha"/>
<feOffset dy="0.5"/>
<feGaussianBlur stdDeviation="0.5"/>
<feComposite in2="hardAlpha" operator="out"/>
<feColorMatrix type="matrix" values="0 0 0 0 0 0 0 0 0 0 0 0 0 0 0 0 0 0 0.12 0"/>
<feBlend mode="normal" in2="BackgroundImageFix" result="effect1_dropShadow_506_10589"/>
<feBlend mode="normal" in="SourceGraphic" in2="effect1_dropShadow_506_10589" result="shape"/>
</filter>
<filter id="filter1_d_506_10589" x="13.7368" y="12.9734" width="5.36865" height="13.7896" filterUnits="userSpaceOnUse" color-interpolation-filters="sRGB">
<feFlood flood-opacity="0" result="BackgroundImageFix"/>
<feColorMatrix in="SourceAlpha" type="matrix" values="0 0 0 0 0 0 0 0 0 0 0 0 0 0 0 0 0 0 127 0" result="hardAlpha"/>
<feOffset dy="0.5"/>
<feGaussianBlur stdDeviation="0.5"/>
<feComposite in2="hardAlpha" operator="out"/>
<feColorMatrix type="matrix" values="0 0 0 0 0 0 0 0 0 0 0 0 0 0 0 0 0 0 0.12 0"/>
<feBlend mode="normal" in2="BackgroundImageFix" result="effect1_dropShadow_506_10589"/>
<feBlend mode="normal" in="SourceGraphic" in2="effect1_dropShadow_506_10589" result="shape"/>
</filter>
<filter id="filter2_d_506_10589" x="20.0522" y="8.7627" width="5.36865" height="18" filterUnits="userSpaceOnUse" color-interpolation-filters="sRGB">
<feFlood flood-opacity="0" result="BackgroundImageFix"/>
<feColorMatrix in="SourceAlpha" type="matrix" values="0 0 0 0 0 0 0 0 0 0 0 0 0 0 0 0 0 0 127 0" result="hardAlpha"/>
<feOffset dy="0.5"/>
<feGaussianBlur stdDeviation="0.5"/>
<feComposite in2="hardAlpha" operator="out"/>
<feColorMatrix type="matrix" values="0 0 0 0 0 0 0 0 0 0 0 0 0 0 0 0 0 0 0.12 0"/>
<feBlend mode="normal" in2="BackgroundImageFix" result="effect1_dropShadow_506_10589"/>
<feBlend mode="normal" in="SourceGraphic" in2="effect1_dropShadow_506_10589" result="shape"/>
</filter>
</defs>
</svg> -->


<svg version="1.1" id="Layer_1" xmlns="http://www.w3.org/2000/svg" xmlns:xlink="http://www.w3.org/1999/xlink" x="0px" y="0px"
	 width="100%" viewBox="0 0 1220 203" enable-background="new 0 0 1220 203" xml:space="preserve">
<path fill="#FEFEFE" opacity="1.000000" stroke="none" 
	d="
M901.000000,204.000000 
	C600.666687,204.000000 300.833344,204.000000 1.000000,204.000000 
	C1.000000,136.333328 1.000000,68.666664 1.000000,1.000000 
	C407.666656,1.000000 814.333313,1.000000 1221.000000,1.000000 
	C1221.000000,68.666664 1221.000000,136.333328 1221.000000,204.000000 
	C1114.500000,204.000000 1008.000000,204.000000 901.000000,204.000000 
M49.050076,99.521217 
	C41.697582,120.847466 34.345085,142.173706 26.904154,163.756470 
	C35.160400,163.756470 43.032360,163.756470 51.005936,163.756470 
	C53.667660,155.680099 56.400276,147.836060 58.787605,139.888321 
	C59.563484,137.305328 60.745255,136.530136 63.335491,136.553070 
	C76.159950,136.666611 88.988342,136.738724 101.809784,136.511353 
	C105.052055,136.453857 106.072006,137.884628 106.888298,140.522049 
	C109.288383,148.276703 111.852905,155.980453 114.374176,163.769409 
	C122.599388,163.769409 130.663010,163.769409 139.057846,163.769409 
	C138.322556,161.600616 137.698715,159.730545 137.055313,157.867203 
	C124.533806,121.605644 112.038506,85.334923 99.393074,49.116619 
	C98.828209,47.498745 96.937759,45.229755 95.591629,45.178329 
	C86.463814,44.829655 77.316307,44.996155 67.936447,44.996155 
	C61.677410,63.024750 55.474102,80.892822 49.050076,99.521217 
M195.377014,73.482315 
	C189.199020,76.946167 183.021027,80.410019 176.550323,84.037987 
	C176.550323,69.291229 176.550323,53.795662 176.550323,38.471237 
	C168.559280,38.471237 161.322037,38.471237 154.192047,38.471237 
	C154.192047,80.444977 154.192047,122.051331 154.192047,163.742142 
	C161.652618,163.742142 168.882538,163.742142 176.232727,163.742142 
	C176.434250,160.017593 176.622421,156.539520 176.777771,153.668228 
	C182.262878,157.256134 187.010620,161.742249 192.644684,163.791000 
	C210.299088,170.210770 228.821228,161.927795 235.870178,144.462189 
	C242.683578,127.580292 242.380615,110.243637 235.882782,93.278267 
	C231.812683,82.651512 223.960266,75.533989 212.605087,73.496567 
	C207.295761,72.543930 201.685242,73.269882 195.377014,73.482315 
M1153.537720,124.132088 
	C1168.521729,124.132027 1183.506470,124.047981 1198.489014,124.195412 
	C1201.911987,124.229095 1203.351196,123.183151 1203.194092,119.673012 
	C1202.971069,114.690125 1203.344727,109.667603 1202.916992,104.709137 
	C1201.410034,87.237289 1190.259888,75.382408 1172.964111,73.219292 
	C1167.402344,72.523689 1161.576172,72.396461 1156.053223,73.224648 
	C1139.431030,75.717186 1128.088501,85.090332 1123.102051,101.265472 
	C1119.388428,113.311951 1119.525635,125.637611 1123.216553,137.679443 
	C1127.379883,151.262070 1136.493408,160.635361 1150.382690,163.547012 
	C1158.831543,165.318176 1167.958252,165.571960 1176.546753,164.547562 
	C1188.623657,163.107086 1197.234375,155.795273 1202.545898,144.488449 
	C1198.378418,141.808350 1194.488770,139.555435 1190.885376,136.912354 
	C1187.909180,134.729218 1186.244263,134.552979 1183.904541,138.115448 
	C1178.645752,146.122040 1167.336548,148.802063 1156.958496,145.193344 
	C1148.482666,142.246094 1143.585938,134.342133 1144.139771,124.132088 
	C1146.923584,124.132088 1149.736938,124.132088 1153.537720,124.132088 
M912.671753,159.369568 
	C912.155945,154.966675 911.640076,150.563782 911.128540,146.198242 
	C901.407593,146.764984 900.891296,146.265610 900.889221,136.755737 
	C900.886902,126.093796 900.894775,115.431854 900.887085,104.769920 
	C900.871460,83.038811 892.065430,73.776825 870.390259,72.684059 
	C869.392029,72.633728 868.392883,72.566795 867.394165,72.567169 
	C852.395142,72.572838 839.422424,77.389885 828.910522,88.605042 
	C832.221924,93.575249 835.407593,98.356789 838.807617,103.460083 
	C840.550049,101.937424 841.770691,100.859077 843.003723,99.795074 
	C850.968384,92.922050 860.090637,89.641167 870.655212,91.043884 
	C874.990234,91.619469 878.238525,93.659073 878.852356,98.384743 
	C879.426025,102.800583 877.389099,105.839302 873.294312,107.305672 
	C870.181152,108.420517 866.930115,109.148903 863.744629,110.063759 
	C855.477539,112.438019 846.765381,113.846016 839.036865,117.394844 
	C820.932068,125.708199 824.740601,154.032089 838.359314,161.671432 
	C848.885254,167.575897 871.446472,168.354553 878.938354,152.961472 
	C879.185181,152.454178 879.817383,152.134415 880.050781,151.924423 
	C882.908081,155.361923 885.025269,159.493164 888.403442,161.643600 
	C895.445190,166.126251 903.361511,165.313538 911.027344,162.750748 
	C911.805237,162.490646 912.197266,161.076294 912.671753,159.369568 
M329.247589,134.373947 
	C329.197021,122.209076 329.427277,110.034737 329.017212,97.881996 
	C328.603729,85.628654 321.407806,76.913956 309.828369,74.155190 
	C300.120605,71.842354 290.313446,71.841232 280.650940,74.497398 
	C271.673950,76.965126 263.830383,81.410233 257.464142,88.689644 
	C260.756287,93.624687 263.940674,98.398163 267.343658,103.499306 
	C269.253174,101.807472 270.579041,100.588333 271.951447,99.424110 
	C280.000153,92.596527 289.226379,89.533806 299.742065,91.136879 
	C303.586060,91.722878 306.628845,93.604904 307.212585,98.002380 
	C307.788727,102.342972 306.360565,105.625984 302.127563,107.148056 
	C298.859375,108.323212 295.454590,109.117867 292.112152,110.087288 
	C283.850220,112.483513 275.137177,113.906090 267.418915,117.477859 
	C249.566528,125.739357 253.064880,153.983490 267.000610,161.746353 
	C277.582275,167.640854 300.000336,168.362640 307.528778,152.792618 
	C307.762085,152.310059 308.498779,152.070908 309.012268,151.710205 
	C317.220703,164.678894 328.741058,168.269470 341.295380,161.652115 
	C340.769409,156.593124 340.227081,151.376694 339.687469,146.186401 
	C329.815582,146.731796 329.256683,146.176804 329.247711,136.332672 
	C329.247406,135.999359 329.247620,135.666046 329.247589,134.373947 
M586.663330,45.047470 
	C586.376587,46.754009 585.842651,48.460133 585.839783,50.167152 
	C585.788940,80.154388 585.803040,110.141739 585.803040,140.129059 
	C585.803040,147.925735 585.803101,155.722427 585.803101,163.759338 
	C593.669373,163.759338 601.235046,163.759338 609.335938,163.759338 
	C609.335938,147.692963 609.335938,131.820328 609.335938,115.453323 
	C625.257751,115.453323 640.650024,115.453323 656.074585,115.453323 
	C656.074585,108.832458 656.074585,102.723793 656.074585,96.160889 
	C640.445312,96.160889 625.033508,96.160889 609.457397,96.160889 
	C609.457397,85.480377 609.457397,75.258720 609.457397,64.693985 
	C626.695923,64.693985 643.638245,64.693985 660.822021,64.693985 
	C660.822021,57.982285 660.822021,51.617039 660.822021,45.000584 
	C636.239136,45.000584 611.941101,45.000584 586.663330,45.047470 
M355.961700,101.499992 
	C355.961700,122.252884 355.961700,143.005768 355.961700,163.692078 
	C363.740814,163.692078 370.960541,163.692078 378.463531,163.692078 
	C378.463531,148.742569 378.221893,134.097839 378.584198,119.468063 
	C378.726196,113.734085 379.382019,107.733696 381.291931,102.386101 
	C384.387970,93.717331 394.155823,89.817436 404.250519,92.094597 
	C410.936279,93.602768 413.985535,98.601540 414.018921,108.509926 
	C414.076141,125.499931 414.030884,142.490265 414.047638,159.480453 
	C414.049042,160.916275 414.193054,162.351959 414.266449,163.707275 
	C421.861786,163.707275 429.098877,163.707275 436.669434,163.707275 
	C436.669434,153.614731 436.749359,143.815063 436.649139,134.017242 
	C436.524780,121.865509 436.741333,109.681664 435.910004,97.573524 
	C435.005524,84.399582 427.679443,75.794518 415.734863,73.541069 
	C401.598053,70.874031 388.764038,72.932693 380.228577,86.323097 
	C379.875580,86.876823 379.765930,87.585648 379.542877,88.222214 
	C378.995941,87.965729 378.449005,87.709236 377.902069,87.452744 
	C377.902069,83.148048 377.902069,78.843346 377.902069,74.392303 
	C370.172424,74.392303 363.267639,74.392303 355.961700,74.392303 
	C355.961700,83.252518 355.961700,91.876251 355.961700,101.499992 
M793.562256,164.004547 
	C798.493591,164.004547 803.424927,164.004547 808.669373,164.004547 
	C808.669373,153.604385 808.749512,143.803604 808.649048,134.004700 
	C808.524536,121.852455 808.741516,109.667953 807.908264,97.559502 
	C807.002014,84.388618 799.668152,75.786102 787.719910,73.536797 
	C773.580078,70.874954 760.747681,72.943550 752.219971,86.338081 
	C751.867188,86.892151 751.788147,87.620468 751.581543,88.267601 
	C751.017273,87.992714 750.452942,87.717819 749.888672,87.442932 
	C749.888672,83.137398 749.888672,78.831863 749.888672,74.398605 
	C742.159607,74.398605 735.253784,74.398605 728.247803,74.398605 
	C728.247803,104.354752 728.247803,134.062668 728.247803,163.681793 
	C735.755920,163.681793 742.974060,163.681793 750.463562,163.681793 
	C750.463562,148.720398 750.240234,134.074860 750.577393,119.442230 
	C750.705811,113.868362 751.330627,108.052788 753.125610,102.827026 
	C756.174011,93.952530 765.341919,90.015762 775.784668,92.017235 
	C782.801758,93.362160 785.984741,98.380661 786.019226,108.538231 
	C786.076965,125.528984 786.030884,142.520065 786.047729,159.510986 
	C786.049133,160.944061 786.195557,162.376999 786.285339,164.004547 
	C788.621948,164.004547 790.602417,164.004547 793.562256,164.004547 
M952.826904,102.537964 
	C954.860046,97.633873 958.419189,94.401962 963.445801,92.707878 
	C976.914978,88.168480 985.616150,94.196327 985.869568,108.291374 
	C985.917419,110.955673 985.882812,113.621490 985.882935,116.286606 
	C985.883545,132.060593 985.883179,147.834595 985.883179,163.750687 
	C993.536133,163.750687 1000.774536,163.750687 1008.054138,163.750687 
	C1008.054138,142.376358 1008.357788,121.245995 1007.944763,100.129654 
	C1007.680298,86.613411 1000.726074,77.277412 989.988586,74.073326 
	C975.349731,69.705086 960.941833,73.820869 953.095825,84.598831 
	C952.290771,85.704727 951.417603,86.761078 950.576111,87.840416 
	C950.149902,87.720085 949.723694,87.599762 949.297485,87.479431 
	C949.297485,83.118973 949.297485,78.758507 949.297485,74.380142 
	C941.781311,74.380142 935.019714,74.380142 928.038574,74.380142 
	C928.038574,104.299713 928.038574,133.995026 928.038574,163.695007 
	C935.540161,163.695007 942.773804,163.695007 949.960754,163.695007 
	C950.049744,163.067993 950.135071,162.746170 950.135315,162.424286 
	C950.146606,147.932739 949.950256,133.436920 950.260864,118.951935 
	C950.373535,113.698723 951.695740,108.471443 952.826904,102.537964 
M505.169769,74.146400 
	C493.200989,71.853050 481.315735,71.287781 470.041656,76.950188 
	C460.724152,81.629898 456.000671,89.381668 456.009918,99.855820 
	C456.019073,110.205826 460.801178,117.678123 470.129639,122.034668 
	C473.715485,123.709335 477.556458,124.900154 481.368164,126.013687 
	C486.626495,127.549828 492.044708,128.565308 497.247986,130.254883 
	C501.364563,131.591614 504.072327,134.542297 503.603577,139.255554 
	C503.136719,143.949738 499.930359,146.263214 495.641724,146.929947 
	C485.483185,148.509232 476.470703,146.068176 469.218781,138.496872 
	C468.111420,137.340729 467.543030,135.668350 466.725342,134.234741 
	C465.171783,135.624985 464.793121,135.690582 464.578766,135.913879 
	C461.930206,138.672867 459.281769,141.432663 456.679993,144.235611 
	C451.626129,149.680237 451.654144,149.974167 457.281158,155.130920 
	C470.290222,167.052795 498.878510,169.415497 513.627380,159.718842 
	C522.525513,153.868729 526.161926,145.355423 525.581787,134.942352 
	C524.991028,124.339462 519.359741,117.269691 509.632843,113.488853 
	C505.784210,111.992905 501.714386,111.047287 497.715057,109.962448 
	C492.750916,108.615898 487.693573,107.581657 482.793243,106.041145 
	C478.921631,104.824013 476.690155,101.969528 477.137177,97.706451 
	C477.565399,93.622482 480.384827,91.721695 484.104980,90.958252 
	C492.728424,89.188583 500.741608,90.393570 507.364777,96.576622 
	C509.727783,98.782631 511.131653,98.402481 513.026306,96.197243 
	C516.160034,92.549950 519.500732,89.080467 522.809570,85.475723 
	C518.510132,79.610222 512.542358,76.522469 505.169769,74.146400 
M1070.641968,146.518768 
	C1060.233154,145.010849 1054.312622,140.682007 1052.796997,130.705124 
	C1051.600952,122.830734 1051.910278,114.490044 1053.034912,106.567093 
	C1054.178101,98.513680 1059.708496,93.290657 1068.062988,92.019485 
	C1078.536377,90.425926 1085.068726,93.501335 1090.026001,101.935692 
	C1090.501221,102.744217 1091.114502,103.471581 1092.026978,104.742699 
	C1097.587158,100.762062 1102.909302,96.951820 1108.246582,93.130806 
	C1104.513428,83.729233 1098.212524,77.341095 1088.985962,75.186905 
	C1081.652100,73.474648 1073.850952,72.689430 1066.333252,73.054604 
	C1048.546997,73.918526 1034.329590,85.752708 1030.221802,103.019531 
	C1028.590088,109.877869 1027.962891,117.223381 1028.349487,124.266365 
	C1029.443970,144.205444 1039.941528,158.161255 1056.923340,163.454941 
	C1065.683960,166.185822 1074.631470,166.507675 1083.566895,164.552948 
	C1096.762085,161.666351 1107.701660,150.940079 1109.157227,139.558105 
	C1103.777954,136.630997 1098.319336,133.660736 1092.880371,130.701126 
	C1085.463257,143.993195 1083.008423,145.778854 1070.641968,146.518768 
M702.002319,139.500000 
	C702.002319,117.759628 702.002319,96.019257 702.002319,74.381226 
	C694.116333,74.381226 687.008118,74.381226 679.700562,74.381226 
	C679.700562,104.343552 679.700562,134.068665 679.700562,163.720032 
	C687.274963,163.720032 694.531067,163.720032 702.002319,163.720032 
	C702.002319,155.787994 702.002319,148.143982 702.002319,139.500000 
M704.267151,52.797894 
	C705.218750,47.185314 703.678162,42.435856 698.797974,39.351036 
	C693.577576,36.051128 687.983398,36.037960 682.726501,39.276051 
	C678.184753,42.073681 676.578125,46.529663 677.039429,51.751091 
	C677.581116,57.883175 682.083191,62.422009 688.329834,63.193787 
	C696.374939,64.187767 701.449036,61.093594 704.267151,52.797894 
z"/>
<path fill="#030303" opacity="1.000000" stroke="none" 
	d="
M49.160439,99.141052 
	C55.474102,80.892822 61.677410,63.024750 67.936447,44.996155 
	C77.316307,44.996155 86.463814,44.829655 95.591629,45.178329 
	C96.937759,45.229755 98.828209,47.498745 99.393074,49.116619 
	C112.038506,85.334923 124.533806,121.605644 137.055313,157.867203 
	C137.698715,159.730545 138.322556,161.600616 139.057846,163.769409 
	C130.663010,163.769409 122.599388,163.769409 114.374176,163.769409 
	C111.852905,155.980453 109.288383,148.276703 106.888298,140.522049 
	C106.072006,137.884628 105.052055,136.453857 101.809784,136.511353 
	C88.988342,136.738724 76.159950,136.666611 63.335491,136.553070 
	C60.745255,136.530136 59.563484,137.305328 58.787605,139.888321 
	C56.400276,147.836060 53.667660,155.680099 51.005936,163.756470 
	C43.032360,163.756470 35.160400,163.756470 26.904154,163.756470 
	C34.345085,142.173706 41.697582,120.847466 49.160439,99.141052 
M92.530067,96.995117 
	C89.509300,87.855240 86.488525,78.715363 83.467758,69.575485 
	C82.866653,69.596931 82.265556,69.618378 81.664459,69.639824 
	C76.571602,85.234421 71.478745,100.829018 66.341774,116.558685 
	C77.549683,116.558685 88.060677,116.558685 98.857498,116.558685 
	C96.765488,110.034264 94.793365,103.883728 92.530067,96.995117 
z"/>
<path fill="#020202" opacity="1.000000" stroke="none" 
	d="
M195.794128,73.358681 
	C201.685242,73.269882 207.295761,72.543930 212.605087,73.496567 
	C223.960266,75.533989 231.812683,82.651512 235.882782,93.278267 
	C242.380615,110.243637 242.683578,127.580292 235.870178,144.462189 
	C228.821228,161.927795 210.299088,170.210770 192.644684,163.791000 
	C187.010620,161.742249 182.262878,157.256134 176.777771,153.668228 
	C176.622421,156.539520 176.434250,160.017593 176.232727,163.742142 
	C168.882538,163.742142 161.652618,163.742142 154.192047,163.742142 
	C154.192047,122.051331 154.192047,80.444977 154.192047,38.471237 
	C161.322037,38.471237 168.559280,38.471237 176.550323,38.471237 
	C176.550323,53.795662 176.550323,69.291229 176.550323,84.037987 
	C183.021027,80.410019 189.199020,76.946167 195.794128,73.358681 
M192.571671,146.121490 
	C205.937759,147.947296 214.093399,142.698822 216.102936,129.471344 
	C217.204330,122.221519 216.925446,114.520309 215.832993,107.238060 
	C214.357941,97.405624 207.771103,92.226494 198.472900,91.778755 
	C188.251694,91.286560 180.968414,96.119545 178.079346,105.728012 
	C175.485397,114.355026 175.464752,123.114059 177.878006,131.814163 
	C179.890350,139.068893 184.282166,144.076782 192.571671,146.121490 
z"/>
<path fill="#030303" opacity="1.000000" stroke="none" 
	d="
M1153.043945,124.132088 
	C1149.736938,124.132088 1146.923584,124.132088 1144.139771,124.132088 
	C1143.585938,134.342133 1148.482666,142.246094 1156.958496,145.193344 
	C1167.336548,148.802063 1178.645752,146.122040 1183.904541,138.115448 
	C1186.244263,134.552979 1187.909180,134.729218 1190.885376,136.912354 
	C1194.488770,139.555435 1198.378418,141.808350 1202.545898,144.488449 
	C1197.234375,155.795273 1188.623657,163.107086 1176.546753,164.547562 
	C1167.958252,165.571960 1158.831543,165.318176 1150.382690,163.547012 
	C1136.493408,160.635361 1127.379883,151.262070 1123.216553,137.679443 
	C1119.525635,125.637611 1119.388428,113.311951 1123.102051,101.265472 
	C1128.088501,85.090332 1139.431030,75.717186 1156.053223,73.224648 
	C1161.576172,72.396461 1167.402344,72.523689 1172.964111,73.219292 
	C1190.259888,75.382408 1201.410034,87.237289 1202.916992,104.709137 
	C1203.344727,109.667603 1202.971069,114.690125 1203.194092,119.673012 
	C1203.351196,123.183151 1201.911987,124.229095 1198.489014,124.195412 
	C1183.506470,124.047981 1168.521729,124.132027 1153.043945,124.132088 
M1176.427856,94.036690 
	C1169.839966,88.974655 1162.611328,88.766029 1155.300293,91.821388 
	C1147.681274,95.005493 1145.433594,101.878296 1144.021118,109.480713 
	C1156.771973,109.480713 1169.144531,109.480713 1181.772949,109.480713 
	C1181.631714,103.832565 1180.731934,98.743805 1176.427856,94.036690 
z"/>
<path fill="#040404" opacity="1.000000" stroke="none" 
	d="
M912.720032,159.783569 
	C912.197266,161.076294 911.805237,162.490646 911.027344,162.750748 
	C903.361511,165.313538 895.445190,166.126251 888.403442,161.643600 
	C885.025269,159.493164 882.908081,155.361923 880.050781,151.924423 
	C879.817383,152.134415 879.185181,152.454178 878.938354,152.961472 
	C871.446472,168.354553 848.885254,167.575897 838.359314,161.671432 
	C824.740601,154.032089 820.932068,125.708199 839.036865,117.394844 
	C846.765381,113.846016 855.477539,112.438019 863.744629,110.063759 
	C866.930115,109.148903 870.181152,108.420517 873.294312,107.305672 
	C877.389099,105.839302 879.426025,102.800583 878.852356,98.384743 
	C878.238525,93.659073 874.990234,91.619469 870.655212,91.043884 
	C860.090637,89.641167 850.968384,92.922050 843.003723,99.795074 
	C841.770691,100.859077 840.550049,101.937424 838.807617,103.460083 
	C835.407593,98.356789 832.221924,93.575249 828.910522,88.605042 
	C839.422424,77.389885 852.395142,72.572838 867.394165,72.567169 
	C868.392883,72.566795 869.392029,72.633728 870.390259,72.684059 
	C892.065430,73.776825 900.871460,83.038811 900.887085,104.769920 
	C900.894775,115.431854 900.886902,126.093796 900.889221,136.755737 
	C900.891296,146.265610 901.407593,146.764984 911.128540,146.198242 
	C911.640076,150.563782 912.155945,154.966675 912.720032,159.783569 
M878.682312,135.655518 
	C878.930542,130.451096 879.178772,125.246666 879.425232,120.079582 
	C873.079712,121.748558 867.520752,123.179573 861.981384,124.682854 
	C859.752319,125.287781 857.472656,125.842842 855.379517,126.784233 
	C850.465393,128.994293 848.873901,133.229187 849.264343,138.253647 
	C849.663391,143.387527 852.253113,146.850235 857.470825,148.242447 
	C867.013916,150.788788 874.997864,146.350006 878.682312,135.655518 
z"/>
<path fill="#030303" opacity="1.000000" stroke="none" 
	d="
M329.247620,134.853333 
	C329.247620,135.666046 329.247406,135.999359 329.247711,136.332672 
	C329.256683,146.176804 329.815582,146.731796 339.687469,146.186401 
	C340.227081,151.376694 340.769409,156.593124 341.295380,161.652115 
	C328.741058,168.269470 317.220703,164.678894 309.012268,151.710205 
	C308.498779,152.070908 307.762085,152.310059 307.528778,152.792618 
	C300.000336,168.362640 277.582275,167.640854 267.000610,161.746353 
	C253.064880,153.983490 249.566528,125.739357 267.418915,117.477859 
	C275.137177,113.906090 283.850220,112.483513 292.112152,110.087288 
	C295.454590,109.117867 298.859375,108.323212 302.127563,107.148056 
	C306.360565,105.625984 307.788727,102.342972 307.212585,98.002380 
	C306.628845,93.604904 303.586060,91.722878 299.742065,91.136879 
	C289.226379,89.533806 280.000153,92.596527 271.951447,99.424110 
	C270.579041,100.588333 269.253174,101.807472 267.343658,103.499306 
	C263.940674,98.398163 260.756287,93.624687 257.464142,88.689644 
	C263.830383,81.410233 271.673950,76.965126 280.650940,74.497398 
	C290.313446,71.841232 300.120605,71.842354 309.828369,74.155190 
	C321.407806,76.913956 328.603729,85.628654 329.017212,97.881996 
	C329.427277,110.034737 329.197021,122.209076 329.247620,134.853333 
M283.563904,126.872498 
	C278.292511,130.517029 276.561676,135.077057 278.198212,141.008987 
	C279.487976,145.683975 283.628998,148.526627 289.652924,148.872162 
	C298.110718,149.357300 305.200958,144.501251 306.861267,136.240036 
	C307.914948,130.997009 307.820740,125.523262 308.259064,119.926369 
	C299.702454,122.272430 291.971741,124.392036 283.563904,126.872498 
z"/>
<path fill="#020202" opacity="1.000000" stroke="none" 
	d="
M587.153198,45.024025 
	C611.941101,45.000584 636.239136,45.000584 660.822021,45.000584 
	C660.822021,51.617039 660.822021,57.982285 660.822021,64.693985 
	C643.638245,64.693985 626.695923,64.693985 609.457397,64.693985 
	C609.457397,75.258720 609.457397,85.480377 609.457397,96.160889 
	C625.033508,96.160889 640.445312,96.160889 656.074585,96.160889 
	C656.074585,102.723793 656.074585,108.832458 656.074585,115.453323 
	C640.650024,115.453323 625.257751,115.453323 609.335938,115.453323 
	C609.335938,131.820328 609.335938,147.692963 609.335938,163.759338 
	C601.235046,163.759338 593.669373,163.759338 585.803101,163.759338 
	C585.803101,155.722427 585.803040,147.925735 585.803040,140.129059 
	C585.803040,110.141739 585.788940,80.154388 585.839783,50.167152 
	C585.842651,48.460133 586.376587,46.754009 587.153198,45.024025 
z"/>
<path fill="#030303" opacity="1.000000" stroke="none" 
	d="
M355.961700,100.999985 
	C355.961700,91.876251 355.961700,83.252518 355.961700,74.392303 
	C363.267639,74.392303 370.172424,74.392303 377.902069,74.392303 
	C377.902069,78.843346 377.902069,83.148048 377.902069,87.452744 
	C378.449005,87.709236 378.995941,87.965729 379.542877,88.222214 
	C379.765930,87.585648 379.875580,86.876823 380.228577,86.323097 
	C388.764038,72.932693 401.598053,70.874031 415.734863,73.541069 
	C427.679443,75.794518 435.005524,84.399582 435.910004,97.573524 
	C436.741333,109.681664 436.524780,121.865509 436.649139,134.017242 
	C436.749359,143.815063 436.669434,153.614731 436.669434,163.707275 
	C429.098877,163.707275 421.861786,163.707275 414.266449,163.707275 
	C414.193054,162.351959 414.049042,160.916275 414.047638,159.480453 
	C414.030884,142.490265 414.076141,125.499931 414.018921,108.509926 
	C413.985535,98.601540 410.936279,93.602768 404.250519,92.094597 
	C394.155823,89.817436 384.387970,93.717331 381.291931,102.386101 
	C379.382019,107.733696 378.726196,113.734085 378.584198,119.468063 
	C378.221893,134.097839 378.463531,148.742569 378.463531,163.692078 
	C370.960541,163.692078 363.740814,163.692078 355.961700,163.692078 
	C355.961700,143.005768 355.961700,122.252884 355.961700,100.999985 
z"/>
<path fill="#030303" opacity="1.000000" stroke="none" 
	d="
M793.072571,164.004547 
	C790.602417,164.004547 788.621948,164.004547 786.285339,164.004547 
	C786.195557,162.376999 786.049133,160.944061 786.047729,159.510986 
	C786.030884,142.520065 786.076965,125.528984 786.019226,108.538231 
	C785.984741,98.380661 782.801758,93.362160 775.784668,92.017235 
	C765.341919,90.015762 756.174011,93.952530 753.125610,102.827026 
	C751.330627,108.052788 750.705811,113.868362 750.577393,119.442230 
	C750.240234,134.074860 750.463562,148.720398 750.463562,163.681793 
	C742.974060,163.681793 735.755920,163.681793 728.247803,163.681793 
	C728.247803,134.062668 728.247803,104.354752 728.247803,74.398605 
	C735.253784,74.398605 742.159607,74.398605 749.888672,74.398605 
	C749.888672,78.831863 749.888672,83.137398 749.888672,87.442932 
	C750.452942,87.717819 751.017273,87.992714 751.581543,88.267601 
	C751.788147,87.620468 751.867188,86.892151 752.219971,86.338081 
	C760.747681,72.943550 773.580078,70.874954 787.719910,73.536797 
	C799.668152,75.786102 807.002014,84.388618 807.908264,97.559502 
	C808.741516,109.667953 808.524536,121.852455 808.649048,134.004700 
	C808.749512,143.803604 808.669373,153.604385 808.669373,164.004547 
	C803.424927,164.004547 798.493591,164.004547 793.072571,164.004547 
z"/>
<path fill="#010101" opacity="1.000000" stroke="none" 
	d="
M952.646484,102.885147 
	C951.695740,108.471443 950.373535,113.698723 950.260864,118.951935 
	C949.950256,133.436920 950.146606,147.932739 950.135315,162.424286 
	C950.135071,162.746170 950.049744,163.067993 949.960754,163.695007 
	C942.773804,163.695007 935.540161,163.695007 928.038574,163.695007 
	C928.038574,133.995026 928.038574,104.299713 928.038574,74.380142 
	C935.019714,74.380142 941.781311,74.380142 949.297485,74.380142 
	C949.297485,78.758507 949.297485,83.118973 949.297485,87.479431 
	C949.723694,87.599762 950.149902,87.720085 950.576111,87.840416 
	C951.417603,86.761078 952.290771,85.704727 953.095825,84.598831 
	C960.941833,73.820869 975.349731,69.705086 989.988586,74.073326 
	C1000.726074,77.277412 1007.680298,86.613411 1007.944763,100.129654 
	C1008.357788,121.245995 1008.054138,142.376358 1008.054138,163.750687 
	C1000.774536,163.750687 993.536133,163.750687 985.883179,163.750687 
	C985.883179,147.834595 985.883545,132.060593 985.882935,116.286606 
	C985.882812,113.621490 985.917419,110.955673 985.869568,108.291374 
	C985.616150,94.196327 976.914978,88.168480 963.445801,92.707878 
	C958.419189,94.401962 954.860046,97.633873 952.646484,102.885147 
z"/>
<path fill="#040404" opacity="1.000000" stroke="none" 
	d="
M505.560974,74.259995 
	C512.542358,76.522469 518.510132,79.610222 522.809570,85.475723 
	C519.500732,89.080467 516.160034,92.549950 513.026306,96.197243 
	C511.131653,98.402481 509.727783,98.782631 507.364777,96.576622 
	C500.741608,90.393570 492.728424,89.188583 484.104980,90.958252 
	C480.384827,91.721695 477.565399,93.622482 477.137177,97.706451 
	C476.690155,101.969528 478.921631,104.824013 482.793243,106.041145 
	C487.693573,107.581657 492.750916,108.615898 497.715057,109.962448 
	C501.714386,111.047287 505.784210,111.992905 509.632843,113.488853 
	C519.359741,117.269691 524.991028,124.339462 525.581787,134.942352 
	C526.161926,145.355423 522.525513,153.868729 513.627380,159.718842 
	C498.878510,169.415497 470.290222,167.052795 457.281158,155.130920 
	C451.654144,149.974167 451.626129,149.680237 456.679993,144.235611 
	C459.281769,141.432663 461.930206,138.672867 464.578766,135.913879 
	C464.793121,135.690582 465.171783,135.624985 466.725342,134.234741 
	C467.543030,135.668350 468.111420,137.340729 469.218781,138.496872 
	C476.470703,146.068176 485.483185,148.509232 495.641724,146.929947 
	C499.930359,146.263214 503.136719,143.949738 503.603577,139.255554 
	C504.072327,134.542297 501.364563,131.591614 497.247986,130.254883 
	C492.044708,128.565308 486.626495,127.549828 481.368164,126.013687 
	C477.556458,124.900154 473.715485,123.709335 470.129639,122.034668 
	C460.801178,117.678123 456.019073,110.205826 456.009918,99.855820 
	C456.000671,89.381668 460.724152,81.629898 470.041656,76.950188 
	C481.315735,71.287781 493.200989,71.853050 505.560974,74.259995 
z"/>
<path fill="#030303" opacity="1.000000" stroke="none" 
	d="
M1071.098877,146.552765 
	C1083.008423,145.778854 1085.463257,143.993195 1092.880371,130.701126 
	C1098.319336,133.660736 1103.777954,136.630997 1109.157227,139.558105 
	C1107.701660,150.940079 1096.762085,161.666351 1083.566895,164.552948 
	C1074.631470,166.507675 1065.683960,166.185822 1056.923340,163.454941 
	C1039.941528,158.161255 1029.443970,144.205444 1028.349487,124.266365 
	C1027.962891,117.223381 1028.590088,109.877869 1030.221802,103.019531 
	C1034.329590,85.752708 1048.546997,73.918526 1066.333252,73.054604 
	C1073.850952,72.689430 1081.652100,73.474648 1088.985962,75.186905 
	C1098.212524,77.341095 1104.513428,83.729233 1108.246582,93.130806 
	C1102.909302,96.951820 1097.587158,100.762062 1092.026978,104.742699 
	C1091.114502,103.471581 1090.501221,102.744217 1090.026001,101.935692 
	C1085.068726,93.501335 1078.536377,90.425926 1068.062988,92.019485 
	C1059.708496,93.290657 1054.178101,98.513680 1053.034912,106.567093 
	C1051.910278,114.490044 1051.600952,122.830734 1052.796997,130.705124 
	C1054.312622,140.682007 1060.233154,145.010849 1071.098877,146.552765 
z"/>
<path fill="#060606" opacity="1.000000" stroke="none" 
	d="
M702.002319,139.999985 
	C702.002319,148.143982 702.002319,155.787994 702.002319,163.720032 
	C694.531067,163.720032 687.274963,163.720032 679.700562,163.720032 
	C679.700562,134.068665 679.700562,104.343552 679.700562,74.381226 
	C687.008118,74.381226 694.116333,74.381226 702.002319,74.381226 
	C702.002319,96.019257 702.002319,117.759628 702.002319,139.999985 
z"/>
<path fill="#040404" opacity="1.000000" stroke="none" 
	d="
M704.197998,53.178791 
	C701.449036,61.093594 696.374939,64.187767 688.329834,63.193787 
	C682.083191,62.422009 677.581116,57.883175 677.039429,51.751091 
	C676.578125,46.529663 678.184753,42.073681 682.726501,39.276051 
	C687.983398,36.037960 693.577576,36.051128 698.797974,39.351036 
	C703.678162,42.435856 705.218750,47.185314 704.197998,53.178791 
z"/>
<path fill="#F9F9F9" opacity="1.000000" stroke="none" 
	d="
M92.675659,97.364159 
	C94.793365,103.883728 96.765488,110.034264 98.857498,116.558685 
	C88.060677,116.558685 77.549683,116.558685 66.341774,116.558685 
	C71.478745,100.829018 76.571602,85.234421 81.664459,69.639824 
	C82.265556,69.618378 82.866653,69.596931 83.467758,69.575485 
	C86.488525,78.715363 89.509300,87.855240 92.675659,97.364159 
z"/>
<path fill="#FCFCFC" opacity="1.000000" stroke="none" 
	d="
M192.175644,146.059540 
	C184.282166,144.076782 179.890350,139.068893 177.878006,131.814163 
	C175.464752,123.114059 175.485397,114.355026 178.079346,105.728012 
	C180.968414,96.119545 188.251694,91.286560 198.472900,91.778755 
	C207.771103,92.226494 214.357941,97.405624 215.832993,107.238060 
	C216.925446,114.520309 217.204330,122.221519 216.102936,129.471344 
	C214.093399,142.698822 205.937759,147.947296 192.175644,146.059540 
z"/>
<path fill="#F6F6F6" opacity="1.000000" stroke="none" 
	d="
M1176.691284,94.292618 
	C1180.731934,98.743805 1181.631714,103.832565 1181.772949,109.480713 
	C1169.144531,109.480713 1156.771973,109.480713 1144.021118,109.480713 
	C1145.433594,101.878296 1147.681274,95.005493 1155.300293,91.821388 
	C1162.611328,88.766029 1169.839966,88.974655 1176.691284,94.292618 
z"/>
<path fill="#FAFAFA" opacity="1.000000" stroke="none" 
	d="
M878.531555,136.050110 
	C874.997864,146.350006 867.013916,150.788788 857.470825,148.242447 
	C852.253113,146.850235 849.663391,143.387527 849.264343,138.253647 
	C848.873901,133.229187 850.465393,128.994293 855.379517,126.784233 
	C857.472656,125.842842 859.752319,125.287781 861.981384,124.682854 
	C867.520752,123.179573 873.079712,121.748558 879.425232,120.079582 
	C879.178772,125.246666 878.930542,130.451096 878.531555,136.050110 
z"/>
<path fill="#FAFAFA" opacity="1.000000" stroke="none" 
	d="
M283.902466,126.692070 
	C291.971741,124.392036 299.702454,122.272430 308.259064,119.926369 
	C307.820740,125.523262 307.914948,130.997009 306.861267,136.240036 
	C305.200958,144.501251 298.110718,149.357300 289.652924,148.872162 
	C283.628998,148.526627 279.487976,145.683975 278.198212,141.008987 
	C276.561676,135.077057 278.292511,130.517029 283.902466,126.692070 
z"/>
</svg>